<svg id="Layer_1" fill="#FFFFFF" data-name="Layer 1" xmlns="http://www.w3.org/2000/svg" viewBox="0 0 540 260">
  <title>logo</title>



  <g class="neeta-name">
    <polygon points="55.13 124.95 55.13 0 39.19 0 39.19 71.27 13.46 0 0 0 0 124.95 16.46 124.95 16.46 50.29 42.33 124.95 55.13 124.95"/>
    <path d="M146.31,67.87h19.86V52H146.31V16h25.21V0H127.11V118.78H122L100.85,243.73H119l4.31-28.85h18.42l4.18,28.85h17.9L143.7,124.95h28.09V109.37H146.31Zm-21,132.51,7.19-52.45,7.18,52.45Z"/>
    <polygon points="115.87 124.95 115.87 109.37 90.4 109.37 90.4 67.87 110.25 67.87 110.25 51.98 90.4 51.98 90.4 16.04 115.61 16.04 115.61 0 71.19 0 71.19 118.78 69.11 118.78 53.56 205.32 38.54 118.78 18.55 118.78 16.72 243.73 31.22 243.73 32.66 156.57 47.94 243.73 59.57 243.73 74.59 156.88 76.16 243.73 90.53 243.73 88.67 124.95 115.87 124.95"/>
    <path d="M504.25,182.18a19.47,19.47,0,0,0,10.12-10.87q2.94-7.48,2.94-19.36,0-18.2-8.23-25.68t-25-7.48H458.66V243.73h19.2V186.5H487l12.67,57.23H519Zm-8.56-14.35q-3.46,4.47-11.69,4.47h-6.14V134.36H485q8,0,11,4.47t3.07,14.35Q499.15,163.36,495.69,167.83Z"/>
    <path d="M406.27,118.78,385.11,243.73h18.16l4.31-28.85H426l4.18,28.85h17.9L426.91,118.78Zm3.27,81.6,7.18-52.45,7.18,52.45Z"/>
    <path d="M219.46,122.87a28.35,28.35,0,0,0-6.92-2.67V16.81h17.37V0H175.7V16.81h17.64v102H174.4V243.73h25.73q12.28,0,19.46-4.4a24.19,24.19,0,0,0,10.25-13.19q3.07-8.79,3.07-23V157.65q0-13.88-3.07-22.29A22.65,22.65,0,0,0,219.46,122.87Zm-6.14,81.06a91.89,91.89,0,0,1-.78,14,12.29,12.29,0,0,1-3.66,7.33q-2.87,2.62-9.27,2.62h-6V135h5.75q6.27,0,9.21,2.08a10,10,0,0,1,3.85,6.4,65.51,65.51,0,0,1,.91,12.65Z"/>
    <path d="M295.49,124.95,274.33,0H253.69L232.53,124.95h18.16L255,96.1h18.42l3.29,22.68H261.53L240.37,243.73h18.16l4.31-28.85h18.42l4.18,28.85h17.9L283.21,124.95ZM257,81.6l7.19-52.45,7.18,52.45Zm7.84,118.78L272,147.93l7.18,52.45Z"/>
    <polygon points="354.93 170.92 333.38 170.92 333.38 118.78 314.17 118.78 314.17 243.73 333.38 243.73 333.38 187.27 354.93 187.27 354.93 243.73 374.27 243.73 374.27 118.78 354.93 118.78 354.93 170.92"/>
  </g>
</svg>
